# xmcd
#
# Track frame offsets:
#	150
#	11977
#	22157
#	33405
#	43927
#	55725
#	74458
#	87070
#	100842
#	112458
#	125161
#	141253
#	152743
#	165125
#	176847
#	188384
#
# Disc length: 2650 seconds
#
# Revision: 2
# Processed by: cddbd v1.4PL0 Copyright (c) Steve Scherf et al.
# Submitted via: audiograbber 1.82.02
#
DISCID=e00a5810
DTITLE=Various Artist - Best of Country and Western (FNM) - CD3 (of 4)
DYEAR=2001
DGENRE=Country
TTITLE0=Frankie Laine - High Noon
TTITLE1=Al Caiola - Bonanza
TTITLE2=Johnny Horton - The Battle of New Orleans (1959)
TTITLE3=Stonewall Jackson - Waterloo
TTITLE4=Guy Mitchell - Heartaches By The Number (1959)
TTITLE5=Kenny Rogers and Dolly Parton - Islands In The Stream (1983)
TTITLE6=The Browns - The Three Bells (1959)
TTITLE7=Glen Campbell - Wichita Lineman (1968)
TTITLE8=Lynn Anderson - You're My Man (1971)
TTITLE9=Johnny Cash - Ring of Fire - live
TTITLE10=Vicky Lawrence - The Night The Lights Went Out In Georgia (1973)
TTITLE11=Donna Fargo - The Happiest Girl In The Whole U.S.A. (1972)
TTITLE12=The Highwaymen - Michael (1961)
TTITLE13=Patsy Cline - Walkin' After Midnight (1961)
TTITLE14=Wanda Jackson - In The Middle of A Heartache (1961)
TTITLE15=Freddy Fender - Before The Next Teardrop Falls (1977)
EXTD=
EXTT0=
EXTT1=
EXTT2=
EXTT3=
EXTT4=
EXTT5=
EXTT6=
EXTT7=
EXTT8=
EXTT9=
EXTT10=
EXTT11=
EXTT12=
EXTT13=
EXTT14=
EXTT15=
PLAYORDER=
